<svg width="128" height="128" viewBox="0 0 128 128" fill="none" xmlns="http://www.w3.org/2000/svg">
  <defs>
    <linearGradient id="g1" x1="10" y1="10" x2="118" y2="118" gradientUnits="userSpaceOnUse">
      <stop stop-color="#173D6A" />
      <stop offset="0.55" stop-color="#1468A8" />
      <stop offset="1" stop-color="#43D16B" />
    </linearGradient>
    <linearGradient id="g2" x1="36" y1="38" x2="92" y2="90" gradientUnits="userSpaceOnUse">
      <stop stop-color="#F7FBFF" />
      <stop offset="1" stop-color="#D8FFF0" />
    </linearGradient>
    <filter id="shadow" x="-20%" y="-20%" width="140%" height="140%">
      <feDropShadow dx="0" dy="4" stdDeviation="5" flood-color="#0F172A" flood-opacity="0.18" />
    </filter>
  </defs>

  <rect x="10" y="10" width="108" height="108" rx="28" fill="url(#g1)" filter="url(#shadow)" />
  <path d="M35 55C35 46.1634 42.1634 39 51 39H77C85.8366 39 93 46.1634 93 55V77C93 85.8366 85.8366 93 77 93H51C42.1634 93 35 85.8366 35 77V55Z" fill="#0F2747" opacity="0.92" />
  <path d="M42 49C42 44.5817 45.5817 41 50 41H78C82.4183 41 86 44.5817 86 49V51H42V49Z" fill="#EAF9FF" opacity="0.96" />
  <path d="M41 56H87L83.9 70.4C83 74.7 79.2 78 74.8 78H53.2C48.8 78 45 74.7 44.1 70.4L41 56Z" fill="url(#g2)" />
  <path d="M46 61.5C53.8 61.5 58.2 66.8 63.3 72.2C66.9 76 70.8 78.8 76.5 78.8" stroke="#2A7BD6" stroke-width="7.5" stroke-linecap="round" />
  <path d="M57 72.2C55.1 72.2 53.7 70.8 53.7 68.9C53.7 67.7 54.3 66.7 55.4 65.7L61.9 60.5" stroke="white" stroke-width="5.2" stroke-linecap="round" stroke-linejoin="round" />
  <path d="M66 66.1L77.4 52.5H70.3L89.5 40.8L85.2 49.1H93L78 80.8L76.2 75.5Z" fill="#EAF9FF" opacity="0.99" />
  <circle cx="88" cy="38" r="8.5" fill="#42C94B" />
  <path d="M84.6 38H91.4M88 34.6L84.6 38L88 41.4" stroke="white" stroke-width="2.8" stroke-linecap="round" stroke-linejoin="round" />
</svg>
